<svg xmlns="http://www.w3.org/2000/svg" viewBox="0 0 32 32">
  <!-- King Protea Favicon - Simplified -->

  <!-- Outer petals ring - dark coral -->
  <path d="M16 2 L18 8 L16 7 L14 8 Z" fill="#a94f54"/>
  <path d="M16 30 L18 24 L16 25 L14 24 Z" fill="#a94f54"/>
  <path d="M2 16 L8 14 L7 16 L8 18 Z" fill="#a94f54"/>
  <path d="M30 16 L24 14 L25 16 L24 18 Z" fill="#a94f54"/>
  <path d="M5 5 L10 9 L8 10 L9 8 Z" fill="#a94f54"/>
  <path d="M27 5 L22 9 L24 10 L23 8 Z" fill="#a94f54"/>
  <path d="M5 27 L10 23 L8 22 L9 24 Z" fill="#a94f54"/>
  <path d="M27 27 L22 23 L24 22 L23 24 Z" fill="#a94f54"/>

  <!-- Inner petals ring - lighter coral -->
  <path d="M16 5 L17 10 L16 9 L15 10 Z" fill="#c96b6b"/>
  <path d="M16 27 L17 22 L16 23 L15 22 Z" fill="#c96b6b"/>
  <path d="M5 16 L10 15 L9 16 L10 17 Z" fill="#c96b6b"/>
  <path d="M27 16 L22 15 L23 16 L22 17 Z" fill="#c96b6b"/>
  <path d="M8 8 L12 11 L10 12 L11 10 Z" fill="#c96b6b"/>
  <path d="M24 8 L20 11 L22 12 L21 10 Z" fill="#c96b6b"/>
  <path d="M8 24 L12 21 L10 20 L11 22 Z" fill="#c96b6b"/>
  <path d="M24 24 L20 21 L22 20 L21 22 Z" fill="#c96b6b"/>

  <!-- Center - cream/green gradient effect -->
  <circle cx="16" cy="16" r="7" fill="#c9d7c9"/>
  <circle cx="16" cy="16" r="5" fill="#e4ebe4"/>
  <circle cx="16" cy="16" r="3" fill="#fefcf8"/>
</svg>
