<svg xmlns="http://www.w3.org/2000/svg" viewBox="0 0 64 64">
  <!-- King Protea Stylized Icon -->

  <!-- Outer bracts (petals) - coral/rose tones -->
  <g id="outer-bracts">
    <!-- Layer 1 - outermost, darkest -->
    <path d="M32 4 L36 18 L32 16 L28 18 Z" fill="#8d3f43"/>
    <path d="M32 60 L36 46 L32 48 L28 46 Z" fill="#8d3f43"/>
    <path d="M4 32 L18 28 L16 32 L18 36 Z" fill="#8d3f43"/>
    <path d="M60 32 L46 28 L48 32 L46 36 Z" fill="#8d3f43"/>

    <!-- Diagonal outer bracts -->
    <path d="M12 12 L22 20 L18 22 L20 18 Z" fill="#8d3f43"/>
    <path d="M52 12 L42 20 L46 22 L44 18 Z" fill="#8d3f43"/>
    <path d="M12 52 L22 44 L18 42 L20 46 Z" fill="#8d3f43"/>
    <path d="M52 52 L42 44 L46 42 L44 46 Z" fill="#8d3f43"/>
  </g>

  <!-- Middle bracts - medium coral -->
  <g id="middle-bracts">
    <path d="M32 8 L35 20 L32 18 L29 20 Z" fill="#a94f54"/>
    <path d="M32 56 L35 44 L32 46 L29 44 Z" fill="#a94f54"/>
    <path d="M8 32 L20 29 L18 32 L20 35 Z" fill="#a94f54"/>
    <path d="M56 32 L44 29 L46 32 L44 35 Z" fill="#a94f54"/>

    <!-- Diagonal middle -->
    <path d="M15 15 L24 22 L21 24 L22 21 Z" fill="#a94f54"/>
    <path d="M49 15 L40 22 L43 24 L42 21 Z" fill="#a94f54"/>
    <path d="M15 49 L24 42 L21 40 L22 43 Z" fill="#a94f54"/>
    <path d="M49 49 L40 42 L43 40 L42 43 Z" fill="#a94f54"/>
  </g>

  <!-- Inner bracts - lighter coral -->
  <g id="inner-bracts">
    <path d="M32 12 L34 22 L32 20 L30 22 Z" fill="#c96b6b"/>
    <path d="M32 52 L34 42 L32 44 L30 42 Z" fill="#c96b6b"/>
    <path d="M12 32 L22 30 L20 32 L22 34 Z" fill="#c96b6b"/>
    <path d="M52 32 L42 30 L44 32 L42 34 Z" fill="#c96b6b"/>

    <!-- Diagonal inner -->
    <path d="M18 18 L26 24 L23 26 L24 23 Z" fill="#c96b6b"/>
    <path d="M46 18 L38 24 L41 26 L40 23 Z" fill="#c96b6b"/>
    <path d="M18 46 L26 40 L23 38 L24 41 Z" fill="#c96b6b"/>
    <path d="M46 46 L38 40 L41 38 L40 41 Z" fill="#c96b6b"/>
  </g>

  <!-- Center dome - fuzzy appearance -->
  <circle cx="32" cy="32" r="14" fill="#c9d7c9"/>
  <circle cx="32" cy="32" r="11" fill="#e4ebe4"/>
  <circle cx="32" cy="32" r="8" fill="#f7f2e8"/>
  <circle cx="32" cy="32" r="5" fill="#fefcf8"/>

  <!-- Center detail - radiating lines for texture -->
  <g id="center-texture" stroke="#a3b9a3" stroke-width="0.5" fill="none">
    <line x1="32" y1="20" x2="32" y2="26"/>
    <line x1="32" y1="38" x2="32" y2="44"/>
    <line x1="20" y1="32" x2="26" y2="32"/>
    <line x1="38" y1="32" x2="44" y2="32"/>
    <line x1="23" y1="23" x2="27" y2="27"/>
    <line x1="41" y1="23" x2="37" y2="27"/>
    <line x1="23" y1="41" x2="27" y2="37"/>
    <line x1="41" y1="41" x2="37" y2="37"/>
  </g>
</svg>
